<svg xmlns="http://www.w3.org/2000/svg" x="0px" y="0px" width="16" height="16" viewBox="0 0 24 24">
    <path d="M10.46,5.82h-0.39v2.7h0.39c0.21,0,0.38-0.17,0.38-0.39V6.21C10.84,5.99,10.67,5.82,10.46,5.82z M10.46,5.82h-0.39v2.7 h0.39c0.21,0,0.38-0.17,0.38-0.39V6.21C10.84,5.99,10.67,5.82,10.46,5.82z M9.89,16.26l-0.01-0.03L9.86,16.2l-0.01-0.03l-0.01-0.02 l-0.01-0.03l-0.01-0.04l-0.01-0.02l-0.02-0.03L9.78,16l-0.01-0.03l-0.01-0.03l-0.01-0.03l-0.01-0.03l-0.02-0.03l-0.01-0.03 L9.7,15.79l-0.01-0.03l-0.01-0.03L9.67,15.7l-0.02-0.03l-0.01-0.03l-0.01-0.03l-0.01,0.03l-0.01,0.03L9.6,15.7l-0.02,0.03 l-0.01,0.03l-0.01,0.03l-0.01,0.03l-0.02,0.03v0.03l-0.02,0.03L9.5,15.94l-0.01,0.03L9.48,16l-0.01,0.03l-0.01,0.03l-0.02,0.02 l-0.01,0.04l-0.01,0.03l-0.01,0.02L9.4,16.2l-0.02,0.04l-0.01,0.02l-0.01,0.03H9.9L9.89,16.26z M9.89,16.26l-0.01-0.03L9.86,16.2 l-0.01-0.03l-0.01-0.02l-0.01-0.03l-0.01-0.04l-0.01-0.02l-0.02-0.03L9.78,16l-0.01-0.03l-0.01-0.03l-0.01-0.03l-0.01-0.03 l-0.02-0.03l-0.01-0.03L9.7,15.79l-0.01-0.03l-0.01-0.03L9.67,15.7l-0.02-0.03l-0.01-0.03l-0.01-0.03l-0.01,0.03l-0.01,0.03 L9.6,15.7l-0.02,0.03l-0.01,0.03l-0.01,0.03l-0.01,0.03l-0.02,0.03v0.03l-0.02,0.03L9.5,15.94l-0.01,0.03L9.48,16l-0.01,0.03 l-0.01,0.03l-0.02,0.02l-0.01,0.04l-0.01,0.03l-0.01,0.02L9.4,16.2l-0.02,0.04l-0.01,0.02l-0.01,0.03H9.9L9.89,16.26z M18,2H6 C4.9,2,4,2.9,4,4v14.26c0,0.78,0.45,1.48,1.15,1.81l5.58,2.61c0.81,0.37,1.73,0.37,2.54,0l5.58-2.61c0.7-0.33,1.15-1.03,1.15-1.81 V4C20,2.9,19.1,2,18,2z M12.77,5.24c0-0.31,0.26-0.57,0.58-0.57c0.32,0,0.58,0.26,0.58,0.57v6.17c0,0.31-0.26,0.57-0.58,0.57 c-0.32,0-0.58-0.26-0.58-0.57V5.24z M12.02,15.22l0.02,0.03l0.02,0.02l0.01,0.03l0.02,0.03l0.02,0.02l0.01,0.03l0.02,0.03 l0.02,0.03l0.01,0.02l0.02,0.03l0.02,0.03l0.01,0.02l0.02,0.03l0.01,0.03l0.02,0.02l0.02,0.03l0.02,0.03l0.01,0.02l0.02,0.03 l0.02,0.03l0.01,0.03l0.02,0.02l0.01-0.02l0.02-0.03l0.02-0.03l0.02-0.03l0.01-0.02l0.02-0.03l0.02-0.03l0.01-0.02l0.02-0.03 l0.01-0.03l0.02-0.02l0.02-0.03l0.01-0.03l0.02-0.02l0.02-0.03l0.02-0.03l0.01-0.03l0.02-0.02l0.01-0.03l0.02-0.03l0.02-0.02 l0.01-0.03l0.02-0.03l0.02-0.03l0.02-0.02l0.01-0.03l0.02-0.03l0.02-0.02l0.01-0.03l0.02-0.02l0.01-0.03l0.02-0.03l0.02-0.03 l0.02-0.02h0.65v2.32h-0.62v-1.37l-0.01,0.02l-0.02,0.03l-0.02,0.03l-0.02,0.02l-0.01,0.03l-0.02,0.03l-0.02,0.02l-0.01,0.03 l-0.02,0.03l-0.02,0.02l-0.02,0.03l-0.01,0.03l-0.02,0.02l-0.02,0.03l-0.01,0.03l-0.02,0.02L12.7,16.3l-0.02,0.03l-0.01,0.02 l-0.02,0.03l-0.02,0.03l-0.02,0.02l-0.01,0.03l-0.02,0.03l-0.02,0.02l-0.02,0.03l-0.01,0.02l-0.02,0.03l-0.02,0.03l-0.02,0.02 l-0.01,0.03l-0.02,0.03l-0.02,0.02l-0.02,0.03l-0.01,0.03h-0.01l-0.02-0.03l-0.02-0.03l-0.02-0.02l-0.01-0.03l-0.02-0.03 l-0.02-0.02l-0.02-0.03l-0.01-0.03l-0.02-0.03l-0.02-0.02l-0.02-0.03l-0.01-0.03l-0.02-0.03l-0.02-0.02l-0.02-0.03l-0.01-0.03 l-0.02-0.03l-0.02-0.02l-0.02-0.03l-0.02-0.03l-0.01-0.02l-0.02-0.03l-0.02-0.03l-0.02-0.02l-0.01-0.03l-0.02-0.03l-0.02-0.03 l-0.02-0.02l-0.01-0.03l-0.02-0.03l-0.02-0.03l-0.02-0.02l-0.01-0.03l-0.02-0.03v1.37h-0.61V14.9h0.66l0.01,0.02l0.02,0.03 l0.02,0.03l0.01,0.03l0.02,0.02l0.01,0.03l0.02,0.02l0.02,0.03l0.01,0.03l0.02,0.02l0.02,0.03L12.02,15.22z M8.92,5.17 c0-0.28,0.22-0.5,0.5-0.5h1.17c0.78,0,1.41,0.63,1.41,1.4v2.28c0,0.88-0.43,1.32-1.31,1.32h-0.61v1.74c0,0.31-0.26,0.57-0.58,0.57 s-0.58-0.26-0.58-0.57V5.17z M8.12,16.91L8.1,16.93l-0.03,0.01l-0.02,0.02l-0.03,0.02L8,17l-0.03,0.01l-0.02,0.02l-0.03,0.02 l-0.03,0.01l-0.03,0.02l-0.02,0.01l-0.03,0.02l-0.03,0.01l-0.03,0.02l-0.03,0.01l-0.03,0.01l-0.03,0.01l-0.03,0.01L7.6,17.19 L7.57,17.2l-0.03,0.01l-0.03,0.01l-0.03,0.01l-0.03,0.01H7.42l-0.03,0.01H7.32l-0.03,0.01H7.22l-0.03,0.01H7.05l-0.03-0.01H6.95 l-0.03-0.01H6.89l-0.03-0.01H6.82L6.8,17.23H6.76l-0.03-0.01L6.7,17.21L6.67,17.2l-0.02-0.01l-0.03-0.01l-0.03-0.01l-0.03-0.02 l-0.03-0.01L6.5,17.13l-0.03-0.02l-0.02-0.02l-0.03-0.01l-0.03-0.02l-0.02-0.01l-0.03-0.02l-0.02-0.02l-0.03-0.02l-0.02-0.02 l-0.02-0.02l-0.03-0.02L6.2,16.91l-0.02-0.02l-0.02-0.03l-0.02-0.02l-0.02-0.02L6.1,16.79l-0.02-0.02l-0.02-0.03l-0.01-0.02 l-0.02-0.03l-0.01-0.03L6,16.64l-0.01-0.03l-0.02-0.03l-0.01-0.03l-0.01-0.03L5.94,16.5l-0.01-0.03l-0.01-0.03l-0.01-0.03v-0.03 L5.9,16.35l-0.01-0.03v-0.03l-0.01-0.03v-0.03L5.87,16.2v-0.27l0.01-0.04v-0.03l0.01-0.03V15.8l0.01-0.03l0.01-0.03l0.01-0.03 l0.01-0.03l0.01-0.03l0.01-0.03l0.01-0.03l0.01-0.03l0.02-0.03L6,15.5l0.02-0.03l0.01-0.02l0.02-0.03l0.01-0.02l0.02-0.03 l0.02-0.03l0.02-0.02l0.02-0.03l0.02-0.02l0.02-0.02l0.02-0.02l0.02-0.03l0.04-0.04l0.03-0.02l0.02-0.02l0.03-0.02l0.02-0.01 l0.03-0.02l0.02-0.02l0.03-0.02l0.03-0.01L6.5,15l0.02-0.01l0.03-0.02l0.03-0.01l0.03-0.01l0.03-0.02h0.03l0.03-0.02h0.03 l0.03-0.01l0.03-0.01l0.03-0.01l0.03-0.01h0.06l0.04-0.01h0.06l0.03-0.01h0.14l0.03,0.01h0.1l0.04,0.01h0.02l0.04,0.01h0.03 l0.03,0.01l0.02,0.01h0.03l0.03,0.01l0.03,0.01l0.03,0.01l0.03,0.01l0.02,0.01l0.03,0.01l0.03,0.02l0.03,0.01l0.03,0.02l0.02,0.01 l0.03,0.02l0.03,0.01l0.03,0.02l0.02,0.02l0.03,0.01l0.02,0.02l0.03,0.02l0.02,0.03l0.03,0.01l-0.02,0.03L8,15.23l-0.02,0.03 l-0.02,0.02l-0.02,0.03l-0.02,0.02L7.9,15.36l-0.02,0.02L7.86,15.4l-0.02,0.03l-0.02,0.03l-0.03,0.02L7.77,15.5l-0.01,0.03 L7.69,15.6l-0.02,0.03l-0.02-0.02l-0.03-0.02L7.6,15.57l-0.03-0.02l-0.02-0.01l-0.03-0.02L7.49,15.5l-0.02-0.01l-0.03-0.01 l-0.02-0.02l-0.03-0.01l-0.03-0.01l-0.03-0.01H7.3l-0.03-0.01l-0.03-0.01H7.17L7.14,15.4H7.07l-0.03,0.01H7.01l-0.03,0.01H6.95 l-0.03,0.01l-0.03,0.01l-0.02,0.02l-0.03,0.01l-0.03,0.01L6.79,15.5l-0.03,0.02l-0.04,0.04l-0.03,0.01L6.67,15.6l-0.02,0.02 l-0.02,0.02l-0.01,0.03L6.6,15.69l-0.01,0.03l-0.02,0.03l-0.01,0.03L6.55,15.8l-0.02,0.03l-0.01,0.04v0.03l-0.01,0.03v0.03 L6.5,15.99v0.14l0.01,0.03v0.03l0.01,0.03v0.03l0.01,0.03l0.01,0.03l0.01,0.02l0.02,0.06l0.02,0.03l0.01,0.03l0.02,0.02l0.02,0.03 l0.08,0.08l0.03,0.02l0.02,0.02l0.03,0.02l0.02,0.01l0.03,0.02l0.03,0.01l0.03,0.01l0.03,0.01l0.03,0.01l0.04,0.01h0.03l0.03,0.01 h0.14l0.04-0.01h0.03l0.03-0.01h0.03l0.03-0.01l0.03-0.01l0.03-0.01l0.03-0.01l0.03-0.02l0.02-0.01l0.02-0.01v-0.3H7.07v-0.46h1.05 V16.91z M7.57,7.75c0.32,0,0.58,0.26,0.58,0.57c0,0.32-0.26,0.58-0.58,0.58H6.99v1.93h0.58c0.32,0,0.58,0.26,0.58,0.57v0.01 c0,0.31-0.26,0.57-0.58,0.57H6.34c-0.28,0-0.5-0.22-0.5-0.5V5.17c0-0.28,0.22-0.5,0.5-0.5h1.23c0.32,0,0.58,0.26,0.58,0.57 c0,0.32-0.26,0.58-0.58,0.58H6.99v1.93H7.57z M9.03,17.14l-0.01,0.03l-0.01,0.02l-0.02,0.03H8.35l0.02-0.03l0.01-0.02l0.01-0.03 L8.4,17.1l0.01-0.02l0.02-0.03l0.01-0.03l0.01-0.03l0.02-0.03l0.01-0.03l0.01-0.03l0.01-0.03l0.01-0.03l0.02-0.03v-0.02l0.01-0.03 l0.02-0.03l0.01-0.03l0.01-0.03l0.02-0.02l0.01-0.03l0.01-0.03l0.01-0.03l0.02-0.03l0.01-0.03l0.01-0.03l0.02-0.03l0.01-0.03 l0.01-0.03l0.01-0.03l0.01-0.03l0.02-0.03l0.01-0.02l0.01-0.04l0.01-0.03l0.02-0.02l0.01-0.03l0.01-0.03l0.01-0.03l0.02-0.03 l0.01-0.03L8.87,16l0.01-0.03l0.02-0.03l0.01-0.03l0.01-0.03l0.01-0.03l0.01-0.03l0.02-0.02l0.01-0.03l0.01-0.03L9,15.71l0.01-0.03 l0.01-0.03l0.01-0.03l0.01-0.03l0.02-0.03l0.01-0.03l0.01-0.03l0.01-0.03l0.01-0.03l0.02-0.03l0.01-0.02l0.01-0.03l0.02-0.04 l0.01-0.02l0.01-0.03l0.01-0.03l0.01-0.03l0.02-0.03l0.01-0.03l0.01-0.03l0.01-0.03l0.02-0.03l0.01-0.03l0.01-0.02l0.01-0.04 l0.02-0.03l0.01-0.02l0.01-0.03h0.59l0.02,0.03l0.01,0.02l0.01,0.03l0.01,0.04l0.01,0.02L10,15.06l0.01,0.03l0.02,0.03l0.01,0.02 l0.01,0.04l0.02,0.02l0.01,0.03l0.01,0.03l0.01,0.03l0.01,0.03l0.02,0.03l0.01,0.03l0.01,0.03l0.01,0.03l0.02,0.03l0.01,0.03 l0.01,0.03l0.01,0.03l0.02,0.03l0.01,0.02l0.01,0.03l0.01,0.03l0.02,0.03l0.01,0.03l0.01,0.03l0.01,0.03l0.01,0.03l0.02,0.03 l0.01,0.03l0.01,0.03l0.02,0.03l0.01,0.03L10.4,16l0.01,0.02l0.01,0.03l0.01,0.03l0.01,0.03l0.02,0.03l0.01,0.03l0.01,0.02 l0.01,0.03l0.02,0.04l0.01,0.02l0.01,0.03l0.01,0.03l0.02,0.03l0.01,0.03l0.01,0.03l0.01,0.03l0.01,0.03l0.02,0.03l0.01,0.03 l0.01,0.03l0.02,0.03l0.01,0.03l0.01,0.03l0.01,0.02l0.01,0.03l0.02,0.03l0.01,0.03l0.01,0.03l0.01,0.03l0.02,0.03l0.01,0.03 l0.01,0.03l0.01,0.03l0.02,0.03l0.01,0.03l0.01,0.03l0.01,0.03l0.02,0.02l0.01,0.04l0.01,0.03l0.01,0.02l0.01,0.03h-0.65 l-0.02-0.03l-0.01-0.02l-0.01-0.03l-0.01-0.04l-0.01-0.02l-0.01-0.03l-0.02-0.03l-0.01-0.03l-0.01-0.03l-0.01-0.03l-0.01-0.03 l-0.01-0.03l-0.02-0.03l-0.01-0.03l-0.01-0.03H9.17l-0.01,0.03l-0.01,0.03l-0.02,0.03L9.12,16.9l-0.01,0.03L9.1,16.96l-0.01,0.03 l-0.01,0.03l-0.02,0.03l-0.01,0.03L9.04,17.1L9.03,17.14z M14.9,19.66l-2.94,1.29h-0.05l-2.82-1.29c-0.07-0.03-0.05-0.13,0.02-0.13 h5.76C14.95,19.53,14.97,19.63,14.9,19.66z M15.93,17.22h-1.85V14.9h1.84v0.52h-1.24v0.38h1.11v0.5h-1.11v0.4h1.25V17.22z M18.13,16.62l-0.01,0.03v0.03l-0.01,0.03l-0.01,0.03l-0.01,0.04l-0.01,0.02l-0.01,0.03l-0.02,0.03l-0.01,0.02l-0.02,0.03L18,16.94 l-0.01,0.02l-0.02,0.02l-0.02,0.03l-0.02,0.01l-0.03,0.03l-0.02,0.02l-0.03,0.02l-0.02,0.01l-0.03,0.02l-0.03,0.02l-0.02,0.01 l-0.03,0.02l-0.04,0.01l-0.03,0.01l-0.03,0.01l-0.03,0.01l-0.03,0.01l-0.03,0.01H17.5l-0.03,0.01h-0.03l-0.03,0.01h-0.06 l-0.04,0.01h-0.23l-0.03-0.01h-0.07l-0.03-0.01h-0.03l-0.03-0.01h-0.04l-0.03-0.01l-0.03-0.01l-0.03-0.01h-0.03l-0.03-0.01 l-0.03-0.01l-0.03-0.01l-0.03-0.01l-0.03-0.01l-0.03-0.02l-0.03-0.01l-0.03-0.01l-0.03-0.02l-0.03-0.01l-0.03-0.02l-0.02-0.01 l-0.03-0.02l-0.03-0.02L16.3,17l-0.03-0.02l-0.02-0.02l-0.03-0.02l-0.02-0.02l-0.03-0.02l-0.02-0.02l0.02-0.02l0.02-0.03l0.02-0.02 l0.02-0.03l0.02-0.02l0.02-0.03l0.02-0.02l0.02-0.02l0.02-0.03l0.02-0.02l0.02-0.03l0.02-0.02l0.02-0.03l0.02-0.02l0.02-0.03 l0.03-0.02l0.01-0.02l0.03,0.01l0.03,0.02l0.02,0.02l0.03,0.02l0.03,0.02l0.03,0.02l0.02,0.01l0.03,0.02l0.03,0.01l0.03,0.02 l0.02,0.01l0.03,0.01l0.03,0.01l0.03,0.01l0.03,0.01l0.03,0.01l0.03,0.01L17,16.72h0.04l0.03,0.01h0.03l0.03,0.01h0.18l0.03-0.01 h0.03l0.03-0.01l0.02-0.01l0.02-0.01l0.03-0.02l0.02-0.02l0.01-0.03l0.01-0.03v-0.07l-0.01-0.04l-0.04-0.04l-0.03-0.02l-0.02-0.01 l-0.03-0.01l-0.03-0.01l-0.04-0.02l-0.02-0.01h-0.03l-0.03-0.01l-0.03-0.01l-0.03-0.01l-0.03-0.01l-0.03-0.01h-0.04l-0.03-0.01 l-0.03-0.01l-0.03-0.01h-0.04l-0.03-0.01l-0.03-0.01l-0.03-0.01l-0.03-0.01l-0.03-0.01l-0.02-0.01l-0.04-0.01l-0.03-0.01 l-0.03-0.02l-0.03-0.01l-0.03-0.01l-0.04-0.02l-0.02-0.02l-0.03-0.01l-0.03-0.02l-0.06-0.06l-0.03-0.02L16.38,16l-0.02-0.03 l-0.01-0.02l-0.02-0.02l-0.01-0.03l-0.02-0.03l-0.01-0.02v-0.03l-0.01-0.03l-0.01-0.03l-0.01-0.03v-0.06l-0.01-0.03v-0.08 l0.01-0.03v-0.06l0.01-0.03l0.01-0.03l0.01-0.03v-0.03l0.01-0.02l0.02-0.03l0.01-0.03l0.02-0.03l0.01-0.03l0.02-0.03l0.02-0.02 l0.02-0.03l0.02-0.02l0.03-0.02l0.02-0.03l0.02-0.01l0.03-0.02l0.02-0.02l0.03-0.02l0.03-0.01l0.03-0.02l0.03-0.01l0.03-0.02h0.03 l0.03-0.02l0.03-0.01h0.02l0.03-0.01l0.03-0.01h0.03l0.03-0.01H17l0.04-0.01h0.2l0.03,0.01h0.1l0.04,0.01h0.03l0.03,0.01l0.03,0.01 h0.03l0.03,0.01l0.03,0.01l0.03,0.01h0.03l0.03,0.02l0.03,0.01l0.03,0.01l0.03,0.01L17.8,15l0.03,0.01l0.02,0.01l0.03,0.02 l0.03,0.02l0.03,0.01l0.02,0.02l0.03,0.02l0.03,0.02l0.02,0.02l0.03,0.02l-0.02,0.02l-0.02,0.03l-0.02,0.02l-0.02,0.03l-0.02,0.03 l-0.01,0.02l-0.02,0.03l-0.02,0.02L17.9,15.4l-0.01,0.02l-0.02,0.03l-0.02,0.03l-0.02,0.02l-0.02,0.03l-0.02,0.03l-0.01,0.02 l-0.02,0.03l-0.03-0.02l-0.03-0.02l-0.02-0.01l-0.03-0.02l-0.03-0.02l-0.02-0.01l-0.03-0.02l-0.02-0.01l-0.03-0.01l-0.03-0.01 l-0.03-0.01l-0.02-0.02l-0.04-0.01l-0.03-0.01l-0.03-0.01h-0.03l-0.04-0.01h-0.03l-0.03-0.01h-0.16l-0.04,0.01l-0.02,0.01 l-0.03,0.01l-0.02,0.01l-0.03,0.03l-0.02,0.03l-0.01,0.02l-0.01,0.04l0.01,0.04l0.01,0.04l0.02,0.02l0.02,0.02l0.03,0.02l0.02,0.01 l0.03,0.02l0.04,0.01l0.04,0.01l0.02,0.01l0.03,0.01h0.03l0.02,0.01l0.04,0.01l0.03,0.01l0.04,0.01l0.03,0.01h0.04l0.03,0.01 l0.03,0.01l0.04,0.01l0.06,0.02l0.03,0.01l0.03,0.01l0.03,0.01l0.03,0.01l0.03,0.01l0.03,0.02l0.04,0.01l0.03,0.01l0.03,0.02 l0.02,0.02l0.03,0.01l0.03,0.02l0.02,0.02l0.03,0.02l0.02,0.02l0.02,0.03l0.03,0.02l0.02,0.03l0.01,0.02l0.02,0.03l0.02,0.03 l0.01,0.02l0.01,0.03l0.01,0.03v0.03l0.01,0.03l0.01,0.03V16.62z M18.16,6.78c0,0.32-0.26,0.58-0.58,0.58s-0.57-0.26-0.57-0.58 V6.21c0-0.22-0.18-0.39-0.39-0.39h-0.38c-0.22,0-0.39,0.17-0.39,0.39v4.16c0,0.31,0.15,0.46,0.47,0.46h0.23 c0.31,0,0.46-0.15,0.46-0.46V9.86c0-0.31,0.25-0.57,0.57-0.57s0.58,0.26,0.58,0.57v0.76c0,0.91-0.47,1.36-1.43,1.36h-0.59 c-0.97,0-1.44-0.46-1.44-1.4V6.07c0-0.94,0.47-1.4,1.44-1.4h0.58c0.97,0,1.44,0.45,1.44,1.39V6.78z M10.84,8.13V6.21 c0-0.22-0.17-0.39-0.38-0.39h-0.39v2.7h0.39C10.67,8.52,10.84,8.35,10.84,8.13z M9.9,16.29l-0.01-0.03l-0.01-0.03L9.86,16.2 l-0.01-0.03l-0.01-0.02l-0.01-0.03l-0.01-0.04l-0.01-0.02l-0.02-0.03L9.78,16l-0.01-0.03l-0.01-0.03l-0.01-0.03l-0.01-0.03 l-0.02-0.03l-0.01-0.03L9.7,15.79l-0.01-0.03l-0.01-0.03L9.67,15.7l-0.02-0.03l-0.01-0.03l-0.01-0.03l-0.01,0.03l-0.01,0.03 L9.6,15.7l-0.02,0.03l-0.01,0.03l-0.01,0.03l-0.01,0.03l-0.02,0.03v0.03l-0.02,0.03L9.5,15.94l-0.01,0.03L9.48,16l-0.01,0.03 l-0.01,0.03l-0.02,0.02l-0.01,0.04l-0.01,0.03l-0.01,0.02L9.4,16.2l-0.02,0.04l-0.01,0.02l-0.01,0.03H9.9z"></path>
    </svg>